<?xml version="1.0" encoding="UTF-8" standalone="no"?>
<!DOCTYPE svg PUBLIC "-//W3C//DTD SVG 20010904//EN"
              "http://www.w3.org/TR/2001/REC-SVG-20010904/DTD/svg10.dtd">
<svg xmlns="http://www.w3.org/2000/svg">
<path id="logo-path" stroke-width="1"
d="M 205.00,50.00
   C 207.17,50.04 209.00,50.02 211.00,51.02
	 213.96,52.50 227.05,65.85 230.28,69.17
	 238.32,77.42 242.98,78.38 243.00,90.00
	 243.00,90.00 243.00,464.00 243.00,464.00
	 243.00,464.00 164.00,464.00 164.00,464.00
	 164.00,464.00 164.00,50.00 164.00,50.00
	 164.00,50.00 205.00,50.00 205.00,50.00 Z
   M 486.58,65.00
   C 486.58,65.00 460.17,93.00 460.17,93.00
	 460.17,93.00 431.09,124.00 431.09,124.00
	 431.09,124.00 382.91,176.00 382.91,176.00
	 382.91,176.00 357.42,203.00 357.42,203.00
	 357.42,203.00 330.04,232.00 330.04,232.00
	 321.71,240.71 321.86,244.98 309.00,245.00
	 309.00,245.00 262.00,245.00 262.00,245.00
	 254.67,244.95 254.05,244.33 254.00,237.00
	 254.00,237.00 254.00,218.00 254.00,218.00
	 254.17,208.86 262.05,203.43 267.72,197.00
	 267.72,197.00 308.91,151.00 308.91,151.00
	 308.91,151.00 376.93,75.00 376.93,75.00
	 376.93,75.00 391.28,59.00 391.28,59.00
	 393.24,56.77 397.55,51.66 400.17,50.60
	 401.95,49.87 405.05,50.00 407.00,50.00
	 407.00,50.00 496.00,50.00 496.00,50.00
	 494.76,57.44 491.38,59.47 486.58,65.00 Z
   M 158.00,57.00
   C 158.00,57.00 158.00,101.00 158.00,101.00
	 158.00,101.00 51.00,101.00 51.00,101.00
	 40.34,100.98 39.38,97.38 32.00,90.00
	 32.00,90.00 13.00,71.00 13.00,71.00
	 8.67,66.67 3.65,62.60 1.00,57.00
	 1.00,57.00 158.00,57.00 158.00,57.00 Z
   M 158.00,113.00
   C 158.00,113.00 158.00,146.00 158.00,146.00
	 158.00,146.00 85.00,146.00 85.00,146.00
	 73.78,145.98 71.72,140.72 64.00,133.00
	 58.45,127.45 49.30,119.01 45.00,113.00
	 45.00,113.00 158.00,113.00 158.00,113.00 Z
   M 158.00,158.00
   C 158.00,158.00 158.00,183.00 158.00,183.00
	 158.00,183.00 117.00,183.00 117.00,183.00
	 117.00,183.00 109.00,181.98 109.00,181.98
	 109.00,181.98 100.00,174.00 100.00,174.00
	 100.00,174.00 85.00,158.00 85.00,158.00
	 85.00,158.00 158.00,158.00 158.00,158.00 Z
   M 310.00,255.00
   C 319.89,255.02 319.86,257.86 327.00,265.00
	 327.00,265.00 340.04,279.00 340.04,279.00
	 340.04,279.00 352.72,292.00 352.72,292.00
	 352.72,292.00 388.96,330.00 388.96,330.00
	 388.96,330.00 453.09,398.00 453.09,398.00
	 453.09,398.00 484.96,431.00 484.96,431.00
	 484.96,431.00 495.00,442.00 495.00,442.00
	 498.27,445.31 508.99,455.55 510.44,459.28
	 511.03,460.79 510.95,462.42 511.00,464.00
	 511.00,464.00 423.00,464.00 423.00,464.00
	 420.91,464.00 417.94,464.12 416.00,463.40
	 411.51,461.75 403.13,451.88 399.72,448.00
	 399.72,448.00 388.04,436.00 388.04,436.00
	 388.04,436.00 370.80,417.42 370.80,417.42
	 370.80,417.42 311.09,354.00 311.09,354.00
	 311.09,354.00 285.00,326.00 285.00,326.00
	 285.00,326.00 263.72,303.00 263.72,303.00
	 256.78,295.13 254.02,295.79 254.00,285.00
	 254.00,285.00 254.00,255.00 254.00,255.00
	 254.00,255.00 310.00,255.00 310.00,255.00 Z" />
<path id="info-path" stroke-width="1"
	d="M 271.00,0.21
	   C 299.05,0.04 338.65,11.33 364.00,23.22
		 395.38,37.94 423.54,58.21 446.83,84.00
		 508.40,152.17 527.67,248.93 499.97,336.00
		 490.28,366.45 473.77,395.35 453.58,420.00
		 434.57,443.19 410.03,463.68 384.00,478.57
		 353.40,496.08 306.47,511.94 271.00,512.00
		 271.00,512.00 239.00,512.00 239.00,512.00
		 223.74,511.82 197.90,506.29 183.00,502.00
		 102.01,478.65 40.27,417.10 12.69,338.00
		 6.88,321.32 0.03,288.51 0.00,271.00
		 0.00,271.00 0.00,241.00 0.00,241.00
		 0.02,226.02 5.00,200.62 9.14,186.00
		 28.73,116.77 76.52,58.61 141.00,26.37
		 163.28,15.23 187.48,7.51 212.00,3.25
		 212.00,3.25 233.00,0.21 233.00,0.21
		 233.00,0.21 271.00,0.21 271.00,0.21 Z
	   M 245.00,173.76
	   C 248.35,174.20 254.38,174.01 258.00,173.76
		 268.01,173.98 275.70,171.30 282.82,163.90
		 301.48,144.49 289.66,111.05 262.00,111.16
		 262.00,111.16 248.00,111.16 248.00,111.16
		 245.72,111.00 243.21,110.91 241.00,111.16
		 233.13,113.57 223.22,122.15 220.75,130.00
		 219.63,133.57 219.95,142.86 220.00,147.00
		 220.17,159.19 226.92,161.90 234.00,170.00
		 234.00,170.00 245.00,173.76 245.00,173.76 Z
	   M 223.00,204.00
	   C 223.00,204.00 223.00,402.00 223.00,402.00
		 223.00,402.00 285.00,402.00 285.00,402.00
		 285.00,402.00 285.00,204.00 285.00,204.00
		 285.00,204.00 223.00,204.00 223.00,204.00 Z" />
<path id="github-path" stroke-width="1"
	d="M 44.83,116.59
	   C 42.88,118.89 38.45,117.63 36.00,116.59
		 29.05,114.28 22.19,109.16 17.01,103.99
		 2.32,89.30 -0.23,75.79 0.00,56.00
		 0.09,48.99 1.59,43.46 4.21,37.00
		 23.51,-10.73 95.33,-11.61 115.38,36.00
		 118.77,44.03 119.99,49.30 120.00,58.00
		 120.03,78.17 116.37,91.61 101.00,105.91
		 96.26,110.32 89.23,115.17 83.00,117.10
		 80.70,117.81 76.93,118.65 75.17,116.43
		 73.85,114.74 74.01,111.08 74.00,109.00
		 73.94,97.83 75.37,97.22 70.00,87.00
		 74.09,86.42 78.17,85.49 82.00,83.91
		 92.38,79.63 98.66,68.15 97.67,57.00
		 96.97,49.00 93.35,46.47 92.53,42.00
		 92.53,42.00 92.53,34.00 92.53,34.00
		 92.53,34.00 91.00,26.00 91.00,26.00
		 91.00,26.00 75.00,32.21 75.00,32.21
		 75.00,32.21 59.00,31.00 59.00,31.00
		 59.00,31.00 44.00,32.01 44.00,32.01
		 44.00,32.01 29.00,26.00 29.00,26.00
		 29.00,26.00 27.47,34.00 27.47,34.00
		 27.47,34.00 27.47,42.00 27.47,42.00
		 26.65,46.47 23.03,49.00 22.33,57.00
		 21.34,68.16 27.67,79.65 38.00,84.05
		 41.39,85.49 46.33,86.48 50.00,87.00
		 50.00,87.00 45.00,100.00 45.00,100.00
		 45.00,100.00 40.00,97.00 40.00,97.00
		 40.00,97.00 41.00,100.00 41.00,100.00
		 41.00,100.00 37.00,100.00 37.00,100.00
		 37.00,100.00 36.00,97.00 36.00,97.00
		 36.00,97.00 35.00,100.00 35.00,100.00
		 35.00,100.00 33.00,100.00 33.00,100.00
		 33.00,100.00 32.00,99.00 32.00,99.00
		 32.00,99.00 33.00,96.00 33.00,96.00
		 33.00,96.00 28.00,97.00 28.00,97.00
		 28.00,97.00 25.00,93.00 25.00,93.00
		 25.00,93.00 27.00,90.00 27.00,90.00
		 22.92,89.41 22.15,89.02 21.00,85.00
		 21.00,85.00 17.00,85.00 17.00,85.00
		 17.00,85.00 22.45,91.04 22.45,91.04
		 26.36,96.09 27.11,101.39 35.00,103.22
		 38.85,104.45 42.21,103.68 46.00,103.22
		 46.00,105.95 46.50,114.30 44.83,116.59 Z
	   M 23.00,87.00
	   C 23.00,87.00 24.00,88.00 24.00,88.00
		 24.00,88.00 24.00,87.00 24.00,87.00
		 24.00,87.00 23.00,87.00 23.00,87.00 Z
	   M 28.00,93.00
	   C 28.00,93.00 29.00,94.00 29.00,94.00
		 29.00,94.00 29.00,93.00 29.00,93.00
		 29.00,93.00 28.00,93.00 28.00,93.00 Z" />
<path id="email-path" stroke-width="1"
	d="M 45.00,7.00
	   C 49.37,7.00 57.30,6.35 60.85,8.85
		 64.42,11.37 63.99,15.14 64.00,19.00
		 64.00,19.00 64.00,45.00 64.00,45.00
		 63.99,47.87 64.29,51.35 62.40,53.72
		 59.54,57.32 54.12,56.99 50.00,57.00
		 50.00,57.00 12.00,57.00 12.00,57.00
		 8.36,56.95 4.09,56.85 1.60,53.72
		 -0.29,51.35 0.01,47.87 0.00,45.00
		 0.00,45.00 0.00,26.00 0.00,26.00
		 0.00,18.34 -2.21,10.90 6.00,7.57
		 6.00,7.57 45.00,7.00 45.00,7.00 Z
	   M 13.00,15.00
	   C 13.00,15.00 25.00,26.13 25.00,26.13
		 25.00,26.13 32.00,30.14 32.00,30.14
		 32.00,30.14 39.00,26.13 39.00,26.13
		 39.00,26.13 51.00,15.00 51.00,15.00
		 51.00,15.00 13.00,15.00 13.00,15.00 Z
	   M 7.00,49.00
	   C 7.00,49.00 57.00,49.00 57.00,49.00
		 57.00,49.00 57.00,21.00 57.00,21.00
		 51.58,24.44 46.87,28.71 42.00,32.87
		 39.68,34.85 36.05,38.16 33.00,38.63
		 29.49,39.17 26.53,36.62 24.00,34.56
		 24.00,34.56 8.00,21.00 8.00,21.00
		 8.00,21.00 7.00,49.00 7.00,49.00 Z" />
<path id="linkedin-path" stroke-width="1"
	d="M 12.94,15.98
	   C 5.22,20.16 -3.21,10.24 6.06,3.03
		 16.71,-0.35 20.14,12.08 12.94,15.98 Z
	   M 44.00,20.84
	   C 51.93,19.26 59.07,23.07 61.36,31.00
		 61.36,31.00 62.00,62.00 62.00,62.00
		 62.00,62.00 49.00,62.00 49.00,62.00
		 49.00,56.47 49.45,43.71 48.14,39.00
		 47.22,35.69 44.99,32.46 41.04,33.66
		 37.77,34.65 36.45,37.90 36.05,41.00
		 36.05,41.00 36.05,62.00 36.05,62.00
		 36.05,62.00 23.00,62.00 23.00,62.00
		 23.00,62.00 23.00,21.00 23.00,21.00
		 27.71,21.00 33.13,19.71 36.00,24.00
		 38.96,22.51 40.66,21.50 44.00,20.84 Z
	   M 2.00,29.00
	   C 2.01,27.18 1.85,24.08 3.02,22.60
		 4.80,20.35 13.20,20.35 14.98,22.60
		 16.15,24.08 15.99,27.18 16.00,29.00
		 16.00,29.00 16.00,62.00 16.00,62.00
		 16.00,62.00 2.00,62.00 2.00,62.00
		 2.00,62.00 2.00,29.00 2.00,29.00 Z" />
<path id="soundcloud-path" stroke-width="1"
	d="M 146.00,53.00
	   C 146.05,23.59 164.37,0.65 195.00,1.00
		 202.57,1.09 221.51,5.50 230.00,7.20
		 230.00,7.20 295.00,20.20 295.00,20.20
		 295.00,20.20 405.00,42.20 405.00,42.20
		 405.00,42.20 436.00,48.39 436.00,48.39
		 436.00,48.39 452.00,50.92 452.00,50.92
		 474.31,57.03 486.96,76.50 486.90,99.00
		 486.90,99.00 486.90,409.00 486.90,409.00
		 486.90,409.00 486.90,433.00 486.90,433.00
		 483.38,460.08 472.10,481.99 449.00,497.48
		 413.99,520.96 363.66,513.97 336.30,482.00
		 322.64,466.05 315.76,444.85 316.00,424.00
		 316.50,381.30 352.17,341.07 396.00,341.00
		 415.11,340.97 418.66,340.71 437.00,348.00
		 437.00,348.00 437.00,147.00 437.00,147.00
		 437.00,147.00 410.00,141.80 410.00,141.80
		 410.00,141.80 362.00,132.20 362.00,132.20
		 362.00,132.20 195.89,99.00 195.89,99.00
		 195.89,99.00 195.89,274.00 195.89,274.00
		 195.89,274.00 195.89,331.00 195.89,331.00
		 195.89,331.00 195.89,369.00 195.89,369.00
		 195.89,369.00 195.89,377.00 195.89,377.00
		 196.12,381.30 195.57,383.84 195.00,388.00
		 191.79,411.24 180.91,431.78 162.00,446.10
		 128.76,471.28 78.38,468.03 49.17,437.91
		 31.90,420.11 24.72,398.40 25.00,374.00
		 25.42,338.40 50.36,306.50 84.00,295.75
		 93.93,292.57 103.67,291.88 114.00,292.00
		 124.18,292.12 137.10,295.07 146.00,300.00
		 146.00,300.00 146.00,53.00 146.00,53.00 Z" />
<path id="plus-path" stroke-width = "1"
        d="M 281.00,0.00
           C 281.00,0.00 281.00,231.00 281.00,231.00
             281.00,231.00 512.00,231.00 512.00,231.00
             512.00,231.00 512.00,281.00 512.00,281.00
             512.00,281.00 281.00,281.00 281.00,281.00
             281.00,281.00 281.00,512.00 281.00,512.00
             281.00,512.00 231.00,512.00 231.00,512.00
             231.00,512.00 231.00,281.00 231.00,281.00
             231.00,281.00 0.00,281.00 0.00,281.00
             0.00,281.00 0.00,231.00 0.00,231.00
             0.00,231.00 231.00,231.00 231.00,231.00
             231.00,231.00 231.00,0.00 231.00,0.00
             231.00,0.00 281.00,0.00 281.00,0.00 Z" />
<path id="minus-path" stroke-width = "1"
        d="M 512.00,231.00
           C 512.00,231.00 512.00,281.00 512.00,281.00
             512.00,281.00 0.00,281.00 0.00,281.00
             0.00,281.00 0.00,231.00 0.00,231.00
             0.00,231.00 512.00,231.00 512.00,231.00 Z" />
<path id="bio-path" stroke-width = "1"
        d="M 0.00,482.00
           C 0.03,462.47 7.12,439.02 14.40,421.00
             14.40,421.00 19.31,408.00 19.31,408.00
             29.53,385.33 44.15,362.86 60.30,344.00
             71.45,330.97 84.45,319.14 98.00,308.65
             98.00,308.65 109.99,299.67 109.99,299.67
             111.30,298.75 113.97,297.18 114.28,295.48
             114.60,293.77 112.62,291.34 111.71,290.00
             111.71,290.00 103.86,278.00 103.86,278.00
             95.68,264.08 89.42,249.59 85.15,234.00
             68.70,173.89 85.82,107.26 130.04,63.04
             198.18,-5.10 310.81,-5.12 378.96,63.04
             408.75,92.83 429.93,139.52 430.00,182.00
             430.00,182.00 430.00,193.00 430.00,193.00
             429.96,215.92 421.98,245.55 411.75,266.00
             408.29,272.93 404.30,279.56 400.00,286.00
             398.56,288.15 395.21,292.15 396.16,294.82
             396.89,296.86 400.25,298.69 402.00,299.88
             402.00,299.88 413.00,308.13 413.00,308.13
             425.88,317.89 438.00,329.00 448.83,341.00
             474.87,369.83 495.24,407.46 505.28,445.00
             508.12,455.62 511.98,471.20 512.00,482.00
             512.00,482.00 512.00,493.00 512.00,493.00
             512.00,493.00 0.00,493.00 0.00,493.00
             0.00,493.00 0.00,482.00 0.00,482.00 Z
           M 177.01,63.05
           C 177.01,63.05 167.96,69.85 167.96,69.85
             167.96,69.85 161.00,74.47 161.00,74.47
             158.18,76.62 143.65,91.11 141.26,94.00
             141.26,94.00 135.85,101.96 135.85,101.96
             129.06,111.33 124.53,116.98 119.87,128.00
             114.21,141.42 107.17,165.58 107.00,180.00
             106.75,201.92 107.82,215.86 114.75,237.00
             129.04,280.60 165.29,316.30 209.00,330.02
             219.59,333.35 234.94,336.87 246.00,337.00
             246.00,337.00 263.00,337.00 263.00,337.00
             277.70,336.98 306.04,330.17 319.00,323.41
             349.46,307.50 376.37,282.98 390.38,251.00
             416.28,191.91 402.48,121.45 354.00,78.17
             341.10,66.66 325.97,57.94 310.00,51.55
             297.36,46.49 277.61,41.16 264.00,41.14
             264.00,41.14 241.00,41.14 241.00,41.14
             218.95,44.52 195.86,50.82 177.01,63.05 Z
           M 54.26,417.28
           C 54.26,417.28 52.21,424.00 52.21,424.00
             52.21,424.00 47.95,435.00 47.95,435.00
             47.95,435.00 43.61,453.00 43.61,453.00
             43.61,453.00 42.00,466.00 42.00,466.00
             42.00,466.00 471.00,466.00 471.00,466.00
             471.00,466.00 469.56,454.00 469.56,454.00
             469.56,454.00 462.22,427.00 462.22,427.00
             452.48,399.46 430.63,366.29 409.00,346.83
             401.12,339.74 392.76,333.48 384.00,327.50
             381.42,325.74 376.11,321.82 373.00,321.78
             369.28,321.73 358.49,331.49 355.00,334.21
             344.25,342.56 328.66,352.05 316.00,357.08
             302.67,362.36 288.47,366.83 274.00,367.00
             257.58,367.19 231.41,367.97 216.00,364.64
             190.04,359.03 157.80,339.39 139.00,321.00
             104.49,340.74 68.49,379.80 54.26,417.28 Z" />
<path id="copy-path" stroke-width = "1"
        d="M 412.00,0.00
           C 412.00,0.00 412.00,80.00 412.00,80.00
             412.00,80.00 372.00,80.00 372.00,80.00
             372.00,80.00 372.00,40.00 372.00,40.00
             372.00,40.00 40.00,40.00 40.00,40.00
             40.00,40.00 40.00,372.00 40.00,372.00
             40.00,372.00 80.00,372.00 80.00,372.00
             80.00,372.00 80.00,412.00 80.00,412.00
             80.00,412.00 0.00,412.00 0.00,412.00
             0.00,412.00 0.00,0.00 0.00,0.00
             0.00,0.00 412.00,0.00 412.00,0.00 Z
           M 512.00,100.00
           C 512.00,100.00 512.00,512.00 512.00,512.00
             512.00,512.00 100.00,512.00 100.00,512.00
             100.00,512.00 100.00,100.00 100.00,100.00
             100.00,100.00 512.00,100.00 512.00,100.00 Z
           M 140.00,140.00
           C 140.00,140.00 140.00,472.00 140.00,472.00
             140.00,472.00 472.00,472.00 472.00,472.00
             472.00,472.00 472.00,140.00 472.00,140.00
             472.00,140.00 140.00,140.00 140.00,140.00 Z" />
<path id="cut-path" stroke-width = "1"
        d="M 151.88,42.00
           C 151.88,42.00 204.37,113.00 204.37,113.00
             204.37,113.00 238.37,159.00 238.37,159.00
             238.37,159.00 258.00,187.00 258.00,187.00
             258.00,187.00 261.00,187.00 261.00,187.00
             263.40,181.37 270.08,173.06 273.99,168.00
             273.99,168.00 291.12,145.00 291.12,145.00
             291.12,145.00 354.85,59.00 354.85,59.00
             354.85,59.00 380.13,25.00 380.13,25.00
             383.76,20.15 387.76,12.88 393.00,10.00
             393.00,10.00 380.41,81.00 380.41,81.00
             379.11,88.78 376.40,109.22 372.75,115.00
             372.75,115.00 359.42,133.00 359.42,133.00
             359.42,133.00 311.88,197.00 311.88,197.00
             311.88,197.00 295.63,219.00 295.63,219.00
             294.28,220.80 290.38,225.28 290.40,227.42
             290.41,229.89 296.67,237.72 298.37,240.00
             298.37,240.00 319.85,269.00 319.85,269.00
             319.85,269.00 352.37,313.00 352.37,313.00
             355.10,316.67 362.51,328.25 366.09,329.91
             367.85,330.58 377.29,329.97 380.00,329.91
             416.77,330.43 449.44,353.79 462.54,388.00
             467.16,400.05 468.15,411.27 468.00,424.00
             467.90,432.38 466.00,441.08 463.33,449.00
             451.62,483.81 421.29,506.44 385.00,509.09
             385.00,509.09 378.00,509.82 378.00,509.82
             378.00,509.82 371.00,509.09 371.00,509.09
             356.20,508.01 341.35,503.40 329.00,494.97
             323.02,490.89 317.07,486.47 312.29,481.00
             288.97,454.32 281.76,416.94 295.87,384.00
             299.06,376.56 305.07,367.15 310.30,361.00
             313.44,357.30 318.14,353.44 317.41,348.00
             316.75,343.06 305.79,329.67 302.42,325.00
             302.42,325.00 275.63,289.00 275.63,289.00
             271.74,283.76 263.70,273.25 261.00,268.00
             254.54,272.85 246.57,285.09 241.58,292.00
             241.58,292.00 213.37,330.00 213.37,330.00
             213.37,330.00 202.42,346.00 202.42,346.00
             201.22,347.94 198.67,351.81 198.50,354.00
             198.22,357.73 206.47,366.33 208.97,370.00
             215.94,380.22 219.88,390.92 222.20,403.00
             231.09,449.45 202.31,495.56 156.00,506.87
             149.76,508.39 138.30,509.89 132.00,509.49
             105.42,507.80 84.30,499.30 66.17,479.00
             35.36,444.49 37.26,387.14 71.09,355.29
             87.81,339.54 109.93,330.03 133.00,330.00
             133.00,330.00 151.91,330.69 151.91,330.69
             154.72,329.54 158.02,324.50 159.85,322.00
             159.85,322.00 174.63,302.00 174.63,302.00
             174.63,302.00 215.42,247.00 215.42,247.00
             215.42,247.00 225.00,234.00 225.00,234.00
             226.32,232.11 228.52,229.40 228.43,227.00
             228.33,224.36 224.73,220.15 223.13,218.00
             223.13,218.00 207.37,197.00 207.37,197.00
             207.37,197.00 148.73,118.00 148.73,118.00
             147.32,116.06 145.23,113.15 144.27,111.00
             144.27,111.00 138.59,81.00 138.59,81.00
             138.59,81.00 131.60,41.00 131.60,41.00
             131.60,41.00 126.00,8.00 126.00,8.00
             126.00,8.00 151.88,42.00 151.88,42.00 Z" />
<path id="delete-path" stroke-width = "1"
        d="M 512.00,0.00
           C 512.00,0.00 512.00,50.00 512.00,50.00
             512.00,50.00 0.00,50.00 0.00,50.00
             0.00,50.00 0.00,0.00 0.00,0.00
             0.00,0.00 512.00,0.00 512.00,0.00 Z
           M 50.00,100.00
           C 50.00,100.00 50.00,462.00 50.00,462.00
             50.00,462.00 462.00,462.00 462.00,462.00
             462.00,462.00 462.00,100.00 462.00,100.00
             462.00,100.00 512.00,100.00 512.00,100.00
             512.00,100.00 512.00,512.00 512.00,512.00
             512.00,512.00 0.00,512.00 0.00,512.00
             0.00,512.00 0.00,100.00 0.00,100.00
             0.00,100.00 50.00,100.00 50.00,100.00 Z
           M 157.00,140.00
           C 157.00,140.00 157.00,421.00 157.00,421.00
             157.00,421.00 107.00,421.00 107.00,421.00
             107.00,421.00 107.00,140.00 107.00,140.00
             107.00,140.00 157.00,140.00 157.00,140.00 Z
           M 281.00,140.00
           C 281.00,140.00 281.00,421.00 281.00,421.00
             281.00,421.00 231.00,421.00 231.00,421.00
             231.00,421.00 231.00,140.00 231.00,140.00
             231.00,140.00 281.00,140.00 281.00,140.00 Z
           M 405.00,140.00
           C 405.00,140.00 405.00,421.00 405.00,421.00
             405.00,421.00 355.00,421.00 355.00,421.00
             355.00,421.00 355.00,140.00 355.00,140.00
             355.00,140.00 405.00,140.00 405.00,140.00 Z" />
<path id="download-path" stroke-width = "1"
        d="M 512.00,0.00
           C 512.00,0.00 512.00,37.00 512.00,37.00
             512.00,37.00 0.00,37.00 0.00,37.00
             0.00,37.00 0.00,0.00 0.00,0.00
             0.00,0.00 512.00,0.00 512.00,0.00 Z
           M 512.00,91.00
           C 512.00,91.00 512.00,124.00 512.00,124.00
             512.00,124.00 511.40,130.83 511.40,130.83
             511.40,130.83 499.00,144.00 499.00,144.00
             499.00,144.00 466.00,177.00 466.00,177.00
             466.00,177.00 324.00,318.00 324.00,318.00
             324.00,318.00 274.00,368.00 274.00,368.00
             274.00,368.00 262.00,379.98 262.00,379.98
             262.00,379.98 256.00,383.80 256.00,383.80
             256.00,383.80 250.00,379.98 250.00,379.98
             250.00,379.98 238.00,368.00 238.00,368.00
             238.00,368.00 189.00,319.00 189.00,319.00
             189.00,319.00 61.00,191.00 61.00,191.00
             61.00,191.00 16.00,146.00 16.00,146.00
             16.00,146.00 0.60,129.00 0.60,129.00
             0.60,129.00 0.00,122.00 0.00,122.00
             0.00,122.00 0.00,91.00 0.00,91.00
             0.00,91.00 512.00,91.00 512.00,91.00 Z
           M 58.00,128.00
           C 62.21,133.87 69.71,140.71 75.00,146.00
             75.00,146.00 104.00,175.00 104.00,175.00
             104.00,175.00 196.00,267.00 196.00,267.00
             196.00,267.00 237.00,308.00 237.00,308.00
             242.40,313.40 251.55,323.95 258.00,327.00
             258.00,327.00 274.00,311.00 274.00,311.00
             274.00,311.00 306.00,279.00 306.00,279.00
             306.00,279.00 411.00,175.00 411.00,175.00
             411.00,175.00 440.00,146.00 440.00,146.00
             440.00,146.00 457.00,128.00 457.00,128.00
             457.00,128.00 58.00,128.00 58.00,128.00 Z
           M 48.00,373.00
           C 48.00,373.00 48.00,475.00 48.00,475.00
             48.00,475.00 465.00,475.00 465.00,475.00
             465.00,475.00 465.00,373.00 465.00,373.00
             465.00,373.00 512.00,373.00 512.00,373.00
             512.00,373.00 512.00,512.00 512.00,512.00
             512.00,512.00 0.00,512.00 0.00,512.00
             0.00,512.00 0.00,373.00 0.00,373.00
             0.00,373.00 48.00,373.00 48.00,373.00 Z" />

<path id="left-path" stroke-width = "1"
        d="M 512.00,16.00
           C 512.00,16.00 512.00,46.00 512.00,46.00
             512.00,46.00 512.00,151.00 512.00,151.00
             512.00,151.00 512.00,512.00 512.00,512.00
             512.00,512.00 473.00,493.26 473.00,493.26
             473.00,493.26 388.00,452.26 388.00,452.26
             388.00,452.26 123.00,324.74 123.00,324.74
             123.00,324.74 37.00,283.22 37.00,283.22
             37.00,283.22 1.00,266.00 1.00,266.00
             1.00,266.00 1.00,264.00 1.00,264.00
             1.00,264.00 22.00,253.25 22.00,253.25
             22.00,253.25 78.00,224.26 78.00,224.26
             78.00,224.26 219.00,151.26 219.00,151.26
             219.00,151.26 418.00,48.26 418.00,48.26
             418.00,48.26 476.00,18.26 476.00,18.26
             476.00,18.26 511.00,0.00 511.00,0.00
             511.00,0.00 512.00,16.00 512.00,16.00 Z
           M 463.00,63.00
           C 459.47,66.24 449.67,70.74 445.00,72.95
             445.00,72.95 437.00,77.65 437.00,77.65
             437.00,77.65 428.00,81.81 428.00,81.81
             428.00,81.81 414.09,88.78 414.09,88.78
             414.09,88.78 406.96,93.18 406.96,93.18
             406.96,93.18 399.00,96.55 399.00,96.55
             399.00,96.55 392.00,100.97 392.00,100.97
             392.00,100.97 384.00,104.60 384.00,104.60
             384.00,104.60 364.00,114.97 364.00,114.97
             364.00,114.97 341.28,127.38 341.28,127.38
             341.28,127.38 333.00,130.87 333.00,130.87
             333.00,130.87 325.00,135.37 325.00,135.37
             325.00,135.37 307.28,144.20 307.28,144.20
             307.28,144.20 295.17,151.15 295.17,151.15
             295.17,151.15 287.99,154.22 287.99,154.22
             287.99,154.22 280.00,158.91 280.00,158.91
             280.00,158.91 273.00,161.82 273.00,161.82
             273.00,161.82 249.00,174.96 249.00,174.96
             249.00,174.96 241.00,178.69 241.00,178.69
             241.00,178.69 205.00,197.68 205.00,197.68
             205.00,197.68 179.00,210.37 179.00,210.37
             179.00,210.37 170.00,215.77 170.00,215.77
             170.00,215.77 163.00,218.90 163.00,218.90
             163.00,218.90 141.00,230.68 141.00,230.68
             141.00,230.68 132.00,234.82 132.00,234.82
             132.00,234.82 110.00,246.74 110.00,246.74
             110.00,246.74 93.00,255.61 93.00,255.61
             87.09,258.45 83.68,258.69 79.00,264.00
             89.22,270.65 90.88,270.14 100.00,274.78
             100.00,274.78 111.00,280.52 111.00,280.52
             111.00,280.52 121.00,284.81 121.00,284.81
             121.00,284.81 140.00,294.68 140.00,294.68
             140.00,294.68 148.00,297.90 148.00,297.90
             148.00,297.90 156.00,302.10 156.00,302.10
             156.00,302.10 165.00,305.81 165.00,305.81
             165.00,305.81 189.99,318.72 189.99,318.72
             189.99,318.72 198.09,321.90 198.09,321.90
             198.09,321.90 206.99,326.72 206.99,326.72
             206.99,326.72 214.17,329.67 214.17,329.67
             214.17,329.67 227.00,336.40 227.00,336.40
             227.00,336.40 236.00,340.32 236.00,340.32
             236.00,340.32 243.83,344.80 243.83,344.80
             243.83,344.80 264.17,353.66 264.17,353.66
             264.17,353.66 273.00,358.63 273.00,358.63
             273.00,358.63 296.28,369.47 296.28,369.47
             296.28,369.47 311.00,377.10 311.00,377.10
             311.00,377.10 319.00,380.37 319.00,380.37
             319.00,380.37 341.00,391.63 341.00,391.63
             341.00,391.63 351.00,395.81 351.00,395.81
             351.00,395.81 381.00,410.37 381.00,410.37
             381.00,410.37 388.00,414.26 388.00,414.26
             388.00,414.26 397.00,417.89 397.00,417.89
             397.00,417.89 408.00,423.66 408.00,423.66
             408.00,423.66 415.00,426.40 415.00,426.40
             415.00,426.40 425.00,432.10 425.00,432.10
             425.00,432.10 435.00,436.18 435.00,436.18
             435.00,436.18 453.00,445.61 453.00,445.61
             453.00,445.61 464.28,450.30 464.28,450.30
             470.46,453.19 475.05,457.16 482.00,458.00
             482.00,458.00 482.00,55.00 482.00,55.00
             482.00,55.00 463.00,63.00 463.00,63.00 Z" />
<path id="lock-path" stroke-width = "1"
        d="M 52.00,198.00
           C 52.04,174.35 58.67,146.88 67.45,125.00
             67.45,125.00 74.75,110.00 74.75,110.00
             99.99,59.83 146.10,22.81 200.00,7.43
             220.37,1.61 241.91,-0.24 263.00,0.00
             263.00,0.00 289.00,2.92 289.00,2.92
             368.54,15.99 432.85,74.56 452.37,153.00
             456.54,169.74 461.01,199.22 458.00,216.00
             458.00,216.00 496.00,216.00 496.00,216.00
             496.00,216.00 496.00,512.00 496.00,512.00
             496.00,512.00 17.00,512.00 17.00,512.00
             17.00,512.00 17.00,216.00 17.00,216.00
             17.00,216.00 52.00,216.00 52.00,216.00
             52.00,216.00 52.00,198.00 52.00,198.00 Z
           M 262.00,29.00
           C 237.62,28.96 237.86,29.13 214.00,34.50
             214.00,34.50 203.00,36.96 203.00,36.96
             203.00,36.96 193.00,40.96 193.00,40.96
             193.00,40.96 176.00,47.96 176.00,47.96
             167.27,52.27 160.74,56.62 153.00,62.41
             153.00,62.41 142.00,70.32 142.00,70.32
             120.10,88.64 103.74,112.68 93.08,139.00
             93.08,139.00 88.60,149.00 88.60,149.00
             81.15,171.63 81.00,192.62 81.00,216.00
             81.00,216.00 429.00,216.00 429.00,216.00
             429.00,216.00 429.00,190.00 429.00,190.00
             428.98,179.36 426.64,174.00 424.42,164.00
             414.77,120.54 386.72,80.46 349.00,56.66
             337.12,49.16 320.32,41.70 307.00,37.10
             301.18,35.09 290.48,34.35 286.00,31.00
             286.00,31.00 262.00,29.00 262.00,29.00 Z" />
<path id="paste-path" stroke-width = "1"
        d="M 384.00,0.00
           C 384.00,0.00 384.00,146.00 384.00,146.00
             384.00,146.00 128.00,146.00 128.00,146.00
             128.00,146.00 128.00,0.00 128.00,0.00
             128.00,0.00 384.00,0.00 384.00,0.00 Z
           M 153.00,25.00
           C 153.00,25.00 153.00,121.00 153.00,121.00
             153.00,121.00 359.00,121.00 359.00,121.00
             359.00,121.00 359.00,25.00 359.00,25.00
             359.00,25.00 153.00,25.00 153.00,25.00 Z
           M 108.00,50.00
           C 108.00,50.00 108.00,95.00 108.00,95.00
             108.00,95.00 70.00,95.00 70.00,95.00
             70.00,95.00 70.00,467.00 70.00,467.00
             70.00,467.00 442.00,467.00 442.00,467.00
             442.00,467.00 442.00,95.00 442.00,95.00
             442.00,95.00 404.00,95.00 404.00,95.00
             404.00,95.00 404.00,50.00 404.00,50.00
             404.00,50.00 487.00,50.00 487.00,50.00
             487.00,50.00 487.00,512.00 487.00,512.00
             487.00,512.00 25.00,512.00 25.00,512.00
             25.00,512.00 25.00,50.00 25.00,50.00
             25.00,50.00 108.00,50.00 108.00,50.00 Z" />
<path id="quit-path" stroke-width = "1"
        d="M 44.58,108.00
           C 69.85,72.28 103.41,42.81 143.00,23.78
             163.30,14.02 204.72,0.26 227.00,0.00
             227.00,0.00 282.00,0.00 282.00,0.00
             293.89,0.02 312.39,4.27 324.00,7.58
             359.75,17.78 391.42,33.81 420.00,57.75
             440.80,75.18 459.99,96.82 474.19,120.00
             489.19,144.49 501.33,173.79 507.00,202.00
             507.00,202.00 482.00,202.00 482.00,202.00
             479.47,201.99 475.74,202.37 473.85,200.40
             472.13,198.61 470.20,189.88 469.25,187.00
             469.25,187.00 459.58,163.00 459.58,163.00
             455.37,154.29 446.24,136.52 440.96,129.00
             425.83,107.48 403.80,86.68 383.00,70.68
             375.62,65.00 349.93,51.53 341.00,47.92
             341.00,47.92 330.00,44.29 330.00,44.29
             330.00,44.29 311.00,37.74 311.00,37.74
             298.85,34.38 276.64,31.15 264.00,31.00
             243.69,30.77 222.81,32.06 203.00,36.90
             203.00,36.90 170.00,47.86 170.00,47.86
             170.00,47.86 158.00,53.89 158.00,53.89
             158.00,53.89 140.00,62.72 140.00,62.72
             119.80,74.24 93.98,97.90 79.48,115.91
             70.90,126.56 63.98,137.97 57.60,150.00
             57.60,150.00 50.36,163.00 50.36,163.00
             47.18,169.68 38.08,194.99 37.00,202.00
             37.00,202.00 4.00,202.00 4.00,202.00
             8.08,173.06 27.76,131.76 44.58,108.00 Z
           M 274.00,88.00
           C 274.00,88.00 274.00,217.00 274.00,217.00
             274.00,217.00 274.00,244.00 274.00,244.00
             274.00,246.41 274.40,252.60 272.98,254.40
             271.41,256.38 267.30,256.00 265.00,256.00
             265.00,256.00 240.00,256.00 240.00,256.00
             237.65,255.95 234.81,256.15 233.60,253.69
             232.72,251.89 233.00,244.39 233.00,242.00
             233.00,242.00 233.00,217.00 233.00,217.00
             233.00,217.00 233.00,88.00 233.00,88.00
             233.00,88.00 274.00,88.00 274.00,88.00 Z
           M 402.74,178.00
           C 440.18,250.60 421.47,338.23 357.00,388.79
             343.30,399.53 324.56,409.53 308.00,415.00
             292.92,419.98 279.64,421.67 264.00,423.17
             259.50,423.60 257.88,424.10 253.00,423.99
             253.00,423.99 244.00,423.09 244.00,423.09
             229.24,422.06 215.13,419.83 201.00,415.26
             153.34,399.82 114.73,361.60 97.06,315.00
             88.64,292.80 86.73,271.47 87.00,248.00
             87.00,248.00 87.83,239.00 87.83,239.00
             90.74,209.93 99.08,186.39 115.33,162.00
             120.48,154.28 122.34,152.00 128.42,145.00
             129.94,143.26 132.73,139.91 135.00,139.34
             138.38,138.49 141.74,142.80 143.72,145.00
             143.72,145.00 161.00,162.00 161.00,162.00
             163.04,164.09 166.90,167.29 166.04,170.58
             165.46,172.81 160.68,178.13 159.05,180.00
             155.28,184.32 154.15,186.23 151.19,191.00
             143.81,202.90 140.13,211.59 136.41,225.00
             133.69,234.80 132.02,237.16 132.00,248.00
             132.00,248.00 132.00,265.00 132.00,265.00
             132.02,276.69 136.14,290.29 140.67,301.00
             140.67,301.00 145.26,312.00 145.26,312.00
             158.96,338.74 182.88,360.72 211.00,371.42
             219.09,374.51 233.48,378.90 242.00,379.00
             261.58,379.23 272.80,380.13 292.00,374.23
             326.77,363.54 355.82,335.37 369.45,302.00
             373.13,292.97 377.88,277.67 378.00,268.00
             378.00,268.00 378.00,246.00 378.00,246.00
             377.93,231.81 370.74,212.61 364.33,200.00
             361.00,193.43 354.45,183.71 349.75,178.00
             347.81,175.64 343.44,171.23 343.90,168.00
             344.30,165.18 348.97,161.03 351.00,159.00
             356.78,153.21 366.88,142.38 373.00,138.00
             385.29,150.29 394.75,162.51 402.74,178.00 Z
           M 27.00,301.00
           C 29.45,301.00 33.29,300.62 35.07,302.60
             37.02,304.77 36.93,310.87 37.78,314.00
             37.78,314.00 46.58,339.00 46.58,339.00
             52.69,355.26 68.09,381.91 79.30,395.00
             79.30,395.00 98.00,414.00 98.00,414.00
             98.00,414.00 117.00,432.54 117.00,432.54
             117.00,432.54 131.00,442.96 131.00,442.96
             131.00,442.96 138.00,446.67 138.00,446.67
             158.42,458.83 166.33,462.88 189.00,470.19
             202.68,474.61 221.65,478.98 236.00,479.00
             236.00,479.00 274.00,479.00 274.00,479.00
             292.75,478.97 315.55,472.65 333.00,465.91
             333.00,465.91 347.00,460.69 347.00,460.69
             383.98,444.01 420.35,414.15 442.30,380.00
             442.30,380.00 448.42,369.00 448.42,369.00
             448.42,369.00 456.63,355.00 456.63,355.00
             462.19,343.90 467.07,330.90 470.43,319.00
             472.11,313.02 474.44,307.23 475.00,301.00
             475.00,301.00 508.00,301.00 508.00,301.00
             506.13,323.92 491.41,359.76 480.30,380.00
             468.07,402.28 454.95,419.05 437.00,437.00
             437.00,437.00 424.00,449.71 424.00,449.71
             388.12,481.18 341.18,502.58 294.00,509.57
             275.53,512.31 258.59,512.21 240.00,512.00
             218.61,511.75 188.21,504.51 168.00,497.31
             102.90,474.12 50.07,424.64 21.31,362.00
             16.41,351.34 9.87,333.32 6.88,322.00
             6.88,322.00 2.00,301.00 2.00,301.00
             2.00,301.00 27.00,301.00 27.00,301.00 Z" />
<path id="right-path" stroke-width = "1"
        d="M 18.00,9.22
           C 18.00,9.22 46.00,23.74 46.00,23.74
             46.00,23.74 133.00,68.74 133.00,68.74
             133.00,68.74 407.00,210.26 407.00,210.26
             407.00,210.26 444.00,229.74 444.00,229.74
             444.00,229.74 465.00,240.31 465.00,240.31
             465.00,240.31 492.00,254.26 492.00,254.26
             492.00,254.26 511.00,264.00 511.00,264.00
             511.00,264.00 511.00,266.00 511.00,266.00
             511.00,266.00 475.00,283.22 475.00,283.22
             475.00,283.22 389.00,324.74 389.00,324.74
             389.00,324.74 124.00,452.26 124.00,452.26
             124.00,452.26 39.00,493.26 39.00,493.26
             39.00,493.26 0.00,512.00 0.00,512.00
             0.00,512.00 0.00,0.00 0.00,0.00
             0.00,0.00 18.00,9.22 18.00,9.22 Z
           M 30.00,55.00
           C 30.00,55.00 30.00,458.00 30.00,458.00
             37.50,456.91 41.13,453.31 47.58,450.24
             47.58,450.24 69.00,440.82 69.00,440.82
             69.00,440.82 78.00,435.67 78.00,435.67
             78.00,435.67 86.00,432.60 86.00,432.60
             86.00,432.60 97.00,426.40 97.00,426.40
             97.00,426.40 104.00,423.66 104.00,423.66
             104.00,423.66 115.00,417.89 115.00,417.89
             115.00,417.89 124.00,414.26 124.00,414.26
             124.00,414.26 131.00,410.37 131.00,410.37
             131.00,410.37 161.00,395.81 161.00,395.81
             161.00,395.81 171.00,391.63 171.00,391.63
             171.00,391.63 193.00,380.37 193.00,380.37
             193.00,380.37 202.00,376.63 202.00,376.63
             202.00,376.63 215.57,369.45 215.57,369.45
             215.57,369.45 239.00,358.63 239.00,358.63
             239.00,358.63 247.72,353.61 247.72,353.61
             247.72,353.61 253.04,351.60 253.04,351.60
             253.04,351.60 268.09,344.79 268.09,344.79
             268.09,344.79 275.00,340.82 275.00,340.82
             275.00,340.82 284.00,336.88 284.00,336.88
             284.00,336.88 296.83,330.09 296.83,330.09
             296.83,330.09 305.00,326.72 305.00,326.72
             305.00,326.72 314.72,321.44 314.72,321.44
             314.72,321.44 322.00,318.72 322.00,318.72
             322.00,318.72 347.00,305.81 347.00,305.81
             347.00,305.81 356.00,302.10 356.00,302.10
             356.00,302.10 364.00,297.90 364.00,297.90
             364.00,297.90 372.00,294.68 372.00,294.68
             372.00,294.68 391.00,284.81 391.00,284.81
             391.00,284.81 401.00,280.52 401.00,280.52
             401.00,280.52 412.00,274.78 412.00,274.78
             421.12,270.14 422.78,270.65 433.00,264.00
             428.32,258.69 424.91,258.45 419.00,255.61
             419.00,255.61 402.00,246.74 402.00,246.74
             402.00,246.74 380.00,234.82 380.00,234.82
             380.00,234.82 371.00,230.68 371.00,230.68
             371.00,230.68 349.00,218.90 349.00,218.90
             349.00,218.90 342.00,215.77 342.00,215.77
             342.00,215.77 333.00,210.37 333.00,210.37
             333.00,210.37 308.00,198.19 308.00,198.19
             308.00,198.19 292.96,189.98 292.96,189.98
             292.96,189.98 264.00,175.49 264.00,175.49
             264.00,175.49 240.00,162.32 240.00,162.32
             240.00,162.32 232.00,158.91 232.00,158.91
             232.00,158.91 224.04,154.22 224.04,154.22
             224.04,154.22 215.96,150.64 215.96,150.64
             215.96,150.64 204.72,144.20 204.72,144.20
             204.72,144.20 187.00,135.37 187.00,135.37
             187.00,135.37 179.00,130.87 179.00,130.87
             179.00,130.87 170.83,127.33 170.83,127.33
             170.83,127.33 148.00,114.97 148.00,114.97
             148.00,114.97 128.00,104.60 128.00,104.60
             128.00,104.60 120.00,100.97 120.00,100.97
             120.00,100.97 113.00,96.55 113.00,96.55
             113.00,96.55 105.04,93.18 105.04,93.18
             105.04,93.18 97.91,88.78 97.91,88.78
             97.91,88.78 84.00,81.81 84.00,81.81
             84.00,81.81 75.00,77.65 75.00,77.65
             75.00,77.65 67.00,72.95 67.00,72.95
             62.33,70.74 52.53,66.24 49.00,63.00
             49.00,63.00 30.00,55.00 30.00,55.00 Z" />
<path id="share-path" stroke-width = "1"
        d="M 184.00,292.75
           C 184.00,292.75 214.00,307.75 214.00,307.75
             214.00,307.75 309.00,355.25 309.00,355.25
             309.00,355.25 340.00,370.78 340.00,370.78
             340.00,370.78 353.00,377.06 353.00,377.06
             358.72,378.73 362.64,370.58 366.09,367.04
             373.61,359.31 386.76,350.92 397.00,347.34
             442.39,331.49 492.60,353.02 507.66,400.00
             509.99,407.28 511.91,416.36 512.00,424.00
             512.15,436.99 510.07,450.07 504.69,462.00
             481.06,514.40 415.98,527.45 372.00,492.19
             363.12,485.07 355.84,475.17 350.76,465.00
             344.51,452.51 342.25,439.82 342.00,426.00
             341.96,424.14 342.02,422.02 340.98,420.39
             339.26,417.70 328.38,412.93 325.00,411.25
             325.00,411.25 270.00,383.75 270.00,383.75
             270.00,383.75 180.00,338.75 180.00,338.75
             180.00,338.75 155.00,326.25 155.00,326.25
             152.57,325.03 145.27,321.05 143.00,320.94
             139.85,320.80 135.64,324.55 133.00,326.33
             126.24,330.88 120.75,333.77 113.00,336.33
             82.31,346.44 49.92,339.88 26.01,317.83
             21.91,314.05 17.80,308.64 14.67,304.00
             -7.83,270.60 -4.16,225.08 24.09,196.04
             40.74,178.93 64.51,170.73 88.00,171.00
             99.39,171.14 113.89,175.07 124.00,180.26
             127.83,182.23 139.04,190.47 142.00,190.45
             144.36,190.44 153.11,185.68 156.00,184.42
             156.00,184.42 174.00,175.25 174.00,175.25
             174.00,175.25 197.00,164.25 197.00,164.25
             197.00,164.25 210.00,157.26 210.00,157.26
             210.00,157.26 224.00,150.75 224.00,150.75
             224.00,150.75 293.00,116.25 293.00,116.25
             293.00,116.25 323.00,101.25 323.00,101.25
             323.00,101.25 338.85,93.04 338.85,93.04
             343.33,89.58 341.74,84.04 342.09,79.00
             342.66,70.66 345.31,59.75 348.45,52.00
             362.06,18.41 394.58,-0.41 430.00,0.00
             473.72,0.52 511.48,38.28 512.00,82.00
             512.41,117.38 494.16,148.92 461.00,163.13
             433.58,174.87 402.49,171.47 378.00,154.65
             369.98,149.15 360.62,141.25 357.00,132.00
             357.00,132.00 336.00,141.75 336.00,141.75
             336.00,141.75 300.00,159.75 300.00,159.75
             300.00,159.75 213.00,203.25 213.00,203.25
             213.00,203.25 165.00,227.00 165.00,227.00
             168.75,238.45 170.06,245.96 170.00,258.00
             169.94,270.57 166.77,275.85 166.00,285.00
             172.33,286.19 178.26,289.88 184.00,292.75 Z" />
<path id="split-path" stroke-width = "1"
        d="M 276.00,0.00
           C 276.00,0.00 276.00,512.00 276.00,512.00
             276.00,512.00 237.00,512.00 237.00,512.00
             237.00,512.00 237.00,0.00 237.00,0.00
             237.00,0.00 276.00,0.00 276.00,0.00 Z
           M 180.00,20.00
           C 180.00,20.00 180.00,57.00 180.00,57.00
             180.00,57.00 57.00,57.00 57.00,57.00
             57.00,57.00 57.00,455.00 57.00,455.00
             57.00,455.00 180.00,455.00 180.00,455.00
             180.00,455.00 180.00,492.00 180.00,492.00
             180.00,492.00 20.00,492.00 20.00,492.00
             20.00,492.00 20.00,20.00 20.00,20.00
             20.00,20.00 180.00,20.00 180.00,20.00 Z
           M 492.00,20.00
           C 492.00,20.00 492.00,492.00 492.00,492.00
             492.00,492.00 332.00,492.00 332.00,492.00
             332.00,492.00 332.00,455.00 332.00,455.00
             332.00,455.00 455.00,455.00 455.00,455.00
             455.00,455.00 455.00,57.00 455.00,57.00
             455.00,57.00 332.00,57.00 332.00,57.00
             332.00,57.00 332.00,20.00 332.00,20.00
             332.00,20.00 492.00,20.00 492.00,20.00 Z" />
<path id="upload-path" stroke-width = "1"
        d="M 19.00,236.00
           C 19.00,236.00 59.00,196.00 59.00,196.00
             59.00,196.00 194.00,61.00 194.00,61.00
             194.00,61.00 239.00,16.00 239.00,16.00
             239.00,16.00 250.00,5.02 250.00,5.02
             251.51,3.58 253.76,1.20 256.00,1.20
             259.41,1.20 269.22,12.22 272.00,15.00
             272.00,15.00 315.00,58.00 315.00,58.00
             315.00,58.00 460.00,202.00 460.00,202.00
             460.00,202.00 498.00,240.00 498.00,240.00
             502.54,244.54 510.93,250.67 512.00,257.00
             512.00,257.00 465.00,257.00 465.00,257.00
             453.78,256.98 451.72,251.72 444.00,244.00
             444.00,244.00 412.00,212.00 412.00,212.00
             412.00,212.00 304.00,105.00 304.00,105.00
             304.00,105.00 273.00,74.00 273.00,74.00
             268.93,69.93 260.38,62.63 258.00,58.00
             258.00,58.00 239.00,76.00 239.00,76.00
             239.00,76.00 207.00,108.00 207.00,108.00
             207.00,108.00 108.00,207.00 108.00,207.00
             108.00,207.00 72.00,243.00 72.00,243.00
             72.00,243.00 57.00,256.40 57.00,256.40
             57.00,256.40 50.00,257.00 50.00,257.00
             50.00,257.00 0.00,257.00 0.00,257.00
             3.05,250.55 13.60,241.40 19.00,236.00 Z
           M 84.00,333.00
           C 84.00,333.00 114.00,303.00 114.00,303.00
             114.00,303.00 208.00,209.00 208.00,209.00
             208.00,209.00 243.00,174.00 243.00,174.00
             245.45,171.55 252.78,163.20 256.00,163.20
             259.22,163.20 266.55,171.55 269.00,174.00
             269.00,174.00 302.00,207.00 302.00,207.00
             302.00,207.00 366.00,270.99 366.00,270.99
             366.00,270.99 404.00,308.00 404.00,308.00
             404.00,308.00 432.00,336.00 432.00,336.00
             436.77,340.77 443.13,345.93 446.00,352.00
             446.00,352.00 412.00,352.00 412.00,352.00
             401.03,351.98 399.55,347.55 392.00,340.00
             392.00,340.00 367.00,315.00 367.00,315.00
             367.00,315.00 301.42,249.58 301.42,249.58
             301.42,249.58 256.00,205.00 256.00,205.00
             256.00,205.00 218.00,244.00 218.00,244.00
             218.00,244.00 145.00,317.00 145.00,317.00
             145.00,317.00 122.00,340.00 122.00,340.00
             114.45,347.55 112.97,351.98 102.00,352.00
             102.00,352.00 66.00,352.00 66.00,352.00
             70.27,346.03 78.56,338.44 84.00,333.00 Z
           M 48.00,373.00
           C 48.00,373.00 48.00,451.00 48.00,451.00
             48.00,451.00 48.00,467.00 48.00,467.00
             48.00,467.00 49.60,473.40 49.60,473.40
             49.60,473.40 58.00,475.00 58.00,475.00
             58.00,475.00 465.00,475.00 465.00,475.00
             465.00,475.00 465.00,373.00 465.00,373.00
             465.00,373.00 512.00,373.00 512.00,373.00
             512.00,373.00 512.00,512.00 512.00,512.00
             512.00,512.00 0.00,512.00 0.00,512.00
             0.00,512.00 0.00,373.00 0.00,373.00
             0.00,373.00 48.00,373.00 48.00,373.00 Z" />
<path id="x-path" stroke-width = "1"
        d="M 58.83,16.15
           C 61.26,16.94 69.62,25.69 71.72,27.91
             71.72,27.91 108.00,64.00 108.00,64.00
             108.00,64.00 209.00,165.00 209.00,165.00
             209.00,165.00 240.00,196.00 240.00,196.00
             242.31,198.31 251.98,208.36 254.00,209.37
             258.48,211.62 264.15,203.85 267.00,201.00
             267.00,201.00 300.00,168.00 300.00,168.00
             300.00,168.00 417.00,51.00 417.00,51.00
             417.00,51.00 445.00,23.00 445.00,23.00
             447.54,20.47 451.98,14.78 456.00,16.17
             458.44,17.01 463.94,22.94 466.00,25.00
             466.00,25.00 488.00,47.00 488.00,47.00
             490.66,49.66 497.27,54.83 495.83,59.00
             494.91,61.65 486.43,69.57 484.00,72.00
             484.00,72.00 454.00,102.00 454.00,102.00
             454.00,102.00 349.00,207.00 349.00,207.00
             349.00,207.00 314.00,242.00 314.00,242.00
             311.50,244.50 302.04,252.86 302.04,256.00
             302.04,258.93 308.85,264.85 311.00,267.00
             311.00,267.00 339.00,295.00 339.00,295.00
             339.00,295.00 452.00,408.00 452.00,408.00
             452.00,408.00 486.00,442.00 486.00,442.00
             488.89,444.89 497.36,451.57 495.83,456.00
             494.99,458.44 489.06,463.94 487.00,466.00
             487.00,466.00 465.00,488.00 465.00,488.00
             462.34,490.66 457.17,497.27 453.00,495.83
             450.35,494.91 442.43,486.43 440.00,484.00
             440.00,484.00 410.00,454.00 410.00,454.00
             410.00,454.00 305.00,349.00 305.00,349.00
             305.00,349.00 270.00,314.00 270.00,314.00
             267.50,311.50 259.14,302.04 256.00,302.04
             253.07,302.04 247.15,308.85 245.00,311.00
             245.00,311.00 217.00,339.00 217.00,339.00
             217.00,339.00 104.00,452.00 104.00,452.00
             104.00,452.00 70.00,486.00 70.00,486.00
             67.11,488.89 60.43,497.36 56.00,495.83
             53.56,494.99 48.06,489.06 46.00,487.00
             46.00,487.00 24.00,465.00 24.00,465.00
             21.34,462.34 14.73,457.17 16.17,453.00
             17.09,450.35 25.57,442.43 28.00,440.00
             28.00,440.00 58.00,410.00 58.00,410.00
             58.00,410.00 128.00,340.00 128.00,340.00
             128.00,340.00 164.09,303.99 164.09,303.99
             164.09,303.99 184.72,283.72 184.72,283.72
             184.72,283.72 199.00,269.00 199.00,269.00
             201.39,266.61 209.96,259.10 209.96,256.00
             209.96,252.90 201.39,245.39 199.00,243.00
             199.00,243.00 167.00,211.00 167.00,211.00
             167.00,211.00 51.00,95.00 51.00,95.00
             51.00,95.00 23.00,67.00 23.00,67.00
             20.47,64.46 14.78,60.02 16.17,56.00
             17.06,53.41 24.69,46.31 27.00,44.00
             33.03,37.97 50.13,19.74 55.99,16.15
             57.21,16.05 56.96,15.51 58.83,16.15 Z" />
</svg>